<svg width="130" height="40" viewBox="0 0 130 40" fill="none" xmlns="http://www.w3.org/2000/svg">
<g clip-path="url(#clip0_337_118)">
<path d="M35.7952 40V21.7713L26.9433 29.9517H20.999L12.341 22.4155V40H0V0H11.1133L24.0358 14.8792L36.8936 0H48.007V40H35.7952Z" fill="white"/>
<path d="M65.5816 10.1771V17.0048H82.3162V27.182H65.5816V40.0644H52.0776V0H84.3838V10.1771H65.5816Z" fill="white"/>
<path d="M107.579 0C120.889 0 130 7.66505 130 19.9678C130 32.2705 120.889 40 107.579 40H88.6475V0H107.579ZM111.614 9.55273C110.196 9.05825 108.687 8.8753 107.191 9.01758H99.9551V13.2041C98.1558 13.2041 96.4305 13.9173 95.1582 15.1855C93.8859 16.4539 93.1709 18.174 93.1709 19.9678C93.1709 21.7615 93.8859 23.4816 95.1582 24.75C96.4305 26.0183 98.1558 26.7314 99.9551 26.7314V30.9824H107.191C108.693 31.1259 110.208 30.9416 111.631 30.4434C113.054 29.9452 114.351 29.1444 115.433 28.0967C116.514 27.0489 117.355 25.7796 117.896 24.376C118.436 22.9723 118.664 21.468 118.563 19.9678C118.654 18.4728 118.419 16.9759 117.874 15.5801C117.329 14.1843 116.488 12.9224 115.407 11.8818C114.327 10.8413 113.032 10.0472 111.614 9.55273ZM100.278 13.2041C102.016 13.3022 103.651 14.0563 104.851 15.3125C106.051 16.5687 106.726 18.2332 106.739 19.9678C106.783 20.8404 106.649 21.7132 106.344 22.5322C106.039 23.3511 105.569 24.0999 104.965 24.7324C104.361 25.3649 103.634 25.8683 102.828 26.2119C102.022 26.5556 101.155 26.7325 100.278 26.7314V13.2041Z" fill="white"/>
</g>
<defs>
<clipPath id="clip0_337_118">
<rect width="130" height="40" fill="white"/>
</clipPath>
</defs>
</svg>
