<svg width="130" height="40" viewBox="0 0 130 40" fill="none" xmlns="http://www.w3.org/2000/svg">
<g clip-path="url(#clip0_177_1681)">
<path d="M35.7952 40V21.7713L26.9433 29.9517H20.999L12.341 22.4155V40H0V0H11.1133L24.0358 14.8792L36.8936 0H48.007V40H35.7952Z" fill="black"/>
<path d="M65.5816 10.1771V17.0048H82.3162V27.182H65.5816V40.0644H52.0776V0H84.3838V10.1771H65.5816Z" fill="black"/>
<path d="M107.579 0H88.6479V40H107.579C120.889 40 130 32.2705 130 19.9678C130 7.66506 120.889 0 107.579 0ZM107.192 30.9823H99.9551V26.7311C98.1558 26.7311 96.4302 26.0185 95.1579 24.7502C93.8856 23.4818 93.1708 21.7615 93.1708 19.9678C93.1708 18.1741 93.8856 16.4538 95.1579 15.1854C96.4302 13.9171 98.1558 13.2045 99.9551 13.2045V9.01771H107.192C108.687 8.87543 110.196 9.05781 111.614 9.55229C113.032 10.0468 114.326 10.8416 115.407 11.8822C116.488 12.9227 117.329 14.1843 117.874 15.5801C118.419 16.9759 118.654 18.4728 118.563 19.9678C118.664 21.468 118.436 22.9721 117.896 24.3758C117.355 25.7795 116.515 27.0493 115.433 28.0971C114.351 29.1448 113.054 29.9456 111.631 30.4438C110.208 30.942 108.693 31.1257 107.192 30.9823Z" fill="black"/>
<path d="M106.74 19.9678C106.783 20.8404 106.649 21.7127 106.344 22.5318C106.039 23.3508 105.57 24.0994 104.965 24.7321C104.361 25.3648 103.634 25.8682 102.828 26.2119C102.022 26.5555 101.155 26.7322 100.278 26.7311V13.2045C102.016 13.3027 103.65 14.0564 104.85 15.3125C106.05 16.5687 106.726 18.2332 106.74 19.9678Z" fill="black"/>
</g>
<defs>
<clipPath id="clip0_177_1681">
<rect width="130" height="40" fill="white"/>
</clipPath>
</defs>
</svg>
